#!OML:ASF G:\JayActor3\Patient Classification 1\Patient 1\Session 2\male.ASF
:FULLY-SPECIFIED
:DEGREES
2493
root 20.3701 15.5974 -5.30893 552.006 -76.9423 -1263.82
lowerback 19.4764 -7.36105 -9.72315
upperback 7.47634 -11.9043 2.16044
thorax -0.104269 -6.52522 9.78088
lowerneck 9.30402 -21.3233 -15.9848
upperneck -18.0494 -28.8594 35.6875
head 1.43718 -16.7445 12.1393
rclavicle 1.31198e-013 -6.20208e-014
rhumerus -3.2477 33.1756 -75.6152
rradius 76.8785
rwrist 5.26509
rhand -43.9209 19.293
rfingers 7.12502
rthumb -16.745 -10.0049
lclavicle 1.31198e-013 -6.20208e-014
lhumerus -17.5776 -2.69075 62.4988
lradius 83.5425
lwrist 18.0823
lhand -38.4535 17.7508
lfingers 7.12502
lthumb -11.4767 47.4166
rfemur -53.3255 -6.63563 30.9818
rtibia 52.7803
rfoot -14.0081 -10.6617
rtoes 27.0634
lfemur -18.8967 24.4716 -26.2321
ltibia 61.3806
lfoot -18.0639 12.0457
ltoes -25.3013
2494
root 20.2624 15.6172 -5.31509 551.621 -76.8311 -1263.38
lowerback 19.5355 -7.37299 -9.61748
upperback 7.45209 -11.9048 2.21518
thorax -0.170973 -6.51894 9.79778
lowerneck 9.30169 -21.3358 -16.0031
upperneck -17.9914 -28.8854 35.6704
head 1.45949 -16.7498 12.125
rclavicle -1.19271e-013 2.14687e-014
rhumerus -3.25479 33.2567 -75.6566
rradius 76.835
rwrist 5.26738
rhand -43.9021 19.2874
rfingers 7.12502
rthumb -16.7269 -10.0119
lclavicle -1.19271e-013 2.14687e-014
lhumerus -17.9412 -2.65966 62.7256
lradius 83.4087
lwrist 18.1095
lhand -38.4606 17.6925
lfingers 7.12502
lthumb -11.4835 47.358
rfemur -53.0064 -6.60083 30.9892
rtibia 52.8876
rfoot -14.2377 -10.6026
rtoes 27.2815
lfemur -19.6357 24.6513 -26.0091
ltibia 62.8322
lfoot -16.1704 11.9515
ltoes -24.3408
2495
root 20.1566 15.6366 -5.32183 551.247 -76.7191 -1262.95
lowerback 19.6145 -7.3768 -9.52778
upperback 7.43036 -11.8996 2.26559
thorax -0.24385 -6.51011 9.82131
lowerneck 9.29533 -21.3487 -16.0227
upperneck -17.9286 -28.9138 35.6601
head 1.486 -16.7563 12.1112
rclavicle -3.89618e-014 -1.66979e-014
rhumerus -3.26638 33.3412 -75.7028
rradius 76.8099
rwrist 5.26192
rhand -43.8953 19.2919
rfingers 7.12502
rthumb -16.7204 -10.008
lclavicle -3.89618e-014 -1.66979e-014
lhumerus -18.3022 -2.63437 62.9397
lradius 83.2648
lwrist 18.1406
lhand -38.4692 17.6051
lfingers 7.12502
lthumb -11.4918 47.2701
rfemur -52.6848 -6.56878 30.9885
rtibia 53.0049
rfoot -14.4323 -10.5321
rtoes 27.4641
lfemur -20.4791 24.8518 -25.7716
ltibia 64.4244
lfoot -14.143 11.8176
ltoes -23.0124
2496
root 20.0527 15.6548 -5.32924 550.897 -76.6015 -1262.57
lowerback 19.7126 -7.37011 -9.46237
upperback 7.41157 -11.8873 2.31091
thorax -0.320748 -6.49834 9.85468
lowerneck 9.28826 -21.3607 -16.0438
upperneck -17.8637 -28.942 35.6554
head 1.51459 -16.763 12.0989
rclavicle -6.59965e-014 4.53229e-014
rhumerus -3.28189 33.4307 -75.7501
rradius 76.8058
rwrist 5.25386
rhand -43.8985 19.3047
rfingers 7.12502
rthumb -16.7235 -9.99492
lclavicle -6.59965e-014 4.53229e-014
lhumerus -18.6627 -2.61102 63.1422
lradius 83.1151
lwrist 18.1598
lhand -38.4661 17.5035
lfingers 7.12502
lthumb -11.4888 47.1687
rfemur -52.3554 -6.53638 30.976
rtibia 53.1326
rfoot -14.6117 -10.4427
rtoes 27.5962
lfemur -21.405 25.0737 -25.5227
ltibia 66.1304
lfoot -12.0052 11.649
ltoes -21.2788
2497
root 19.9507 15.6715 -5.33718 550.573 -76.4727 -1262.23
lowerback 19.8217 -7.35011 -9.42117
upperback 7.39912 -11.8636 2.34777
thorax -0.395674 -6.48202 9.89187
lowerneck 9.28795 -21.3695 -16.0647
upperneck -17.8086 -28.9661 35.665
head 1.54135 -16.7704 12.0933
rclavicle -2.70347e-014 -2.06736e-014
rhumerus -3.29851 33.5194 -75.7974
rradius 76.8206
rwrist 5.24989
rhand -43.9132 19.3241
rfingers 7.12502
rthumb -16.7376 -9.9744
lclavicle -2.70347e-014 -2.06736e-014
lhumerus -19.017 -2.59043 63.332
lradius 82.9631
lwrist 18.1645
lhand -38.4555 17.3954
lfingers 7.12502
lthumb -11.4786 47.0611
rfemur -52.0164 -6.50199 30.9523
rtibia 53.2709
rfoot -14.7997 -10.3315
rtoes 27.6768
lfemur -22.3917 25.3131 -25.2666
ltibia 67.9174
lfoot -9.83292 11.4343
ltoes -19.0652
2498
root 19.8505 15.6863 -5.34547 550.267 -76.337 -1261.93
lowerback 19.9349 -7.31913 -9.39866
upperback 7.39463 -11.83 2.37716
thorax -0.463922 -6.46217 9.92963
lowerneck 9.28864 -21.377 -16.0767
upperneck -17.7616 -28.9865 35.6786
head 1.56417 -16.7777 12.0899
rclavicle 1.52667e-013 -5.40694e-014
rhumerus -3.3101 33.6059 -75.838
rradius 76.8524
rwrist 5.24999
rhand -43.9282 19.3489
rfingers 7.12502
rthumb -16.7521 -9.94833
lclavicle 1.52667e-013 -5.40694e-014
lhumerus -19.3615 -2.56726 63.5108
lradius 82.8121
lwrist 18.152
lhand -38.4309 17.3041
lfingers 7.12502
lthumb -11.4549 46.9711
rfemur -51.6714 -6.46394 30.9227
rtibia 53.4188
rfoot -15.0184 -10.2111
rtoes 27.7145
lfemur -23.4234 25.5587 -25.0044
ltibia 69.7484
lfoot -7.72467 11.1631
ltoes -16.4072
